<mxfile host="app.diagrams.net" agent="Mozilla/5.0 (Windows NT 10.0; Win64; x64) AppleWebKit/537.36 (KHTML, like Gecko) Chrome/133.0.0.0 Safari/537.36" version="26.0.11">
  <diagram name="Page-1" id="Sg27ewzia-_h06QZ9Vor">
    <mxGraphModel dx="2924" dy="1132" grid="1" gridSize="10" guides="1" tooltips="1" connect="1" arrows="1" fold="1" page="1" pageScale="1" pageWidth="850" pageHeight="1100" math="0" shadow="0">
      <root>
        <mxCell id="0" />
        <mxCell id="1" parent="0" />
        <mxCell id="3UfQps2seiqcPyeoxD33-52" style="edgeStyle=orthogonalEdgeStyle;rounded=0;orthogonalLoop=1;jettySize=auto;html=1;exitX=1;exitY=0.25;exitDx=0;exitDy=0;entryX=0;entryY=0.5;entryDx=0;entryDy=0;" edge="1" parent="1" source="2" target="3UfQps2seiqcPyeoxD33-51">
          <mxGeometry relative="1" as="geometry" />
        </mxCell>
        <mxCell id="3UfQps2seiqcPyeoxD33-54" style="edgeStyle=orthogonalEdgeStyle;rounded=0;orthogonalLoop=1;jettySize=auto;html=1;exitX=1;exitY=0.75;exitDx=0;exitDy=0;entryX=0;entryY=0.5;entryDx=0;entryDy=0;" edge="1" parent="1" source="2" target="3UfQps2seiqcPyeoxD33-50">
          <mxGeometry relative="1" as="geometry" />
        </mxCell>
        <mxCell id="2" value="Host PC" style="whiteSpace=wrap;strokeWidth=2;" parent="1" vertex="1">
          <mxGeometry x="-115" y="458" width="115" height="54" as="geometry" />
        </mxCell>
        <mxCell id="4" value="Eval Board 1" style="whiteSpace=wrap;strokeWidth=2;" parent="1" vertex="1">
          <mxGeometry x="1110" y="270" width="149" height="54" as="geometry" />
        </mxCell>
        <mxCell id="5" value="Eval Board 2" style="whiteSpace=wrap;strokeWidth=2;" parent="1" vertex="1">
          <mxGeometry x="1110" y="382" width="149" height="54" as="geometry" />
        </mxCell>
        <mxCell id="11" value="Eval Board 8" style="whiteSpace=wrap;strokeWidth=2;" parent="1" vertex="1">
          <mxGeometry x="1110" y="670" width="149" height="54" as="geometry" />
        </mxCell>
        <mxCell id="3UfQps2seiqcPyeoxD33-32" value="&lt;font style=&quot;font-size: 50px;&quot;&gt;...&lt;/font&gt;" style="text;html=1;align=center;verticalAlign=middle;whiteSpace=wrap;rounded=0;rotation=90;fontSize=16;" vertex="1" parent="1">
          <mxGeometry x="1170" y="540" width="60" height="30" as="geometry" />
        </mxCell>
        <mxCell id="3UfQps2seiqcPyeoxD33-44" value="" style="swimlane;startSize=0;" vertex="1" parent="1">
          <mxGeometry x="160" y="80" width="650" height="810" as="geometry" />
        </mxCell>
        <mxCell id="3" value="USB switch IC" style="whiteSpace=wrap;strokeWidth=2;" parent="3UfQps2seiqcPyeoxD33-44" vertex="1">
          <mxGeometry x="313" y="80" width="50" height="183" as="geometry" />
        </mxCell>
        <mxCell id="3UfQps2seiqcPyeoxD33-73" style="edgeStyle=orthogonalEdgeStyle;rounded=0;orthogonalLoop=1;jettySize=auto;html=1;exitX=0.5;exitY=1;exitDx=0;exitDy=0;entryX=0.5;entryY=0;entryDx=0;entryDy=0;" edge="1" parent="3UfQps2seiqcPyeoxD33-44" source="12" target="13">
          <mxGeometry relative="1" as="geometry" />
        </mxCell>
        <mxCell id="3UfQps2seiqcPyeoxD33-74" style="edgeStyle=orthogonalEdgeStyle;rounded=0;orthogonalLoop=1;jettySize=auto;html=1;exitX=0.5;exitY=0;exitDx=0;exitDy=0;entryX=0.5;entryY=1;entryDx=0;entryDy=0;" edge="1" parent="3UfQps2seiqcPyeoxD33-44" source="12" target="3">
          <mxGeometry relative="1" as="geometry" />
        </mxCell>
        <mxCell id="12" value="Switching Circuit" style="whiteSpace=wrap;strokeWidth=2;" parent="3UfQps2seiqcPyeoxD33-44" vertex="1">
          <mxGeometry x="296" y="360" width="83" height="54" as="geometry" />
        </mxCell>
        <mxCell id="13" value="Serial MUX" style="whiteSpace=wrap;strokeWidth=2;" parent="3UfQps2seiqcPyeoxD33-44" vertex="1">
          <mxGeometry x="270" y="550" width="136" height="54" as="geometry" />
        </mxCell>
        <mxCell id="3UfQps2seiqcPyeoxD33-53" style="edgeStyle=orthogonalEdgeStyle;rounded=0;orthogonalLoop=1;jettySize=auto;html=1;exitX=1;exitY=0.5;exitDx=0;exitDy=0;" edge="1" parent="3UfQps2seiqcPyeoxD33-44" source="3UfQps2seiqcPyeoxD33-51" target="3">
          <mxGeometry relative="1" as="geometry" />
        </mxCell>
        <mxCell id="3UfQps2seiqcPyeoxD33-51" value="USB_IN 0" style="whiteSpace=wrap;html=1;aspect=fixed;" vertex="1" parent="3UfQps2seiqcPyeoxD33-44">
          <mxGeometry x="-40" y="131.5" width="80" height="80" as="geometry" />
        </mxCell>
        <mxCell id="3UfQps2seiqcPyeoxD33-72" style="edgeStyle=orthogonalEdgeStyle;rounded=0;orthogonalLoop=1;jettySize=auto;html=1;exitX=1;exitY=0.5;exitDx=0;exitDy=0;entryX=0;entryY=0.5;entryDx=0;entryDy=0;" edge="1" parent="3UfQps2seiqcPyeoxD33-44" source="3UfQps2seiqcPyeoxD33-70" target="12">
          <mxGeometry relative="1" as="geometry" />
        </mxCell>
        <mxCell id="3UfQps2seiqcPyeoxD33-70" value="Chip Select&#xa;&#xa;Switches" style="whiteSpace=wrap;strokeWidth=2;" vertex="1" parent="3UfQps2seiqcPyeoxD33-44">
          <mxGeometry x="79" y="360" width="181" height="54" as="geometry" />
        </mxCell>
        <mxCell id="3UfQps2seiqcPyeoxD33-75" value="multiboard_controller" style="text;html=1;align=center;verticalAlign=middle;whiteSpace=wrap;rounded=0;" vertex="1" parent="3UfQps2seiqcPyeoxD33-44">
          <mxGeometry x="30" width="60" height="30" as="geometry" />
        </mxCell>
        <mxCell id="3UfQps2seiqcPyeoxD33-76" value="Power?" style="text;html=1;align=center;verticalAlign=middle;whiteSpace=wrap;rounded=0;fontColor=#FF3333;" vertex="1" parent="3UfQps2seiqcPyeoxD33-44">
          <mxGeometry x="10" y="211.5" width="60" height="30" as="geometry" />
        </mxCell>
        <mxCell id="3UfQps2seiqcPyeoxD33-83" value="" style="edgeStyle=orthogonalEdgeStyle;rounded=0;orthogonalLoop=1;jettySize=auto;html=1;" edge="1" parent="3UfQps2seiqcPyeoxD33-44" source="3UfQps2seiqcPyeoxD33-80" target="13">
          <mxGeometry relative="1" as="geometry" />
        </mxCell>
        <mxCell id="3UfQps2seiqcPyeoxD33-80" value="USB-to-Serial&#xa;Convertor" style="whiteSpace=wrap;strokeWidth=2;" vertex="1" parent="3UfQps2seiqcPyeoxD33-44">
          <mxGeometry x="100" y="550" width="110" height="54" as="geometry" />
        </mxCell>
        <mxCell id="3UfQps2seiqcPyeoxD33-82" style="edgeStyle=orthogonalEdgeStyle;rounded=0;orthogonalLoop=1;jettySize=auto;html=1;exitX=1;exitY=0.5;exitDx=0;exitDy=0;entryX=0;entryY=0.5;entryDx=0;entryDy=0;" edge="1" parent="1" source="3UfQps2seiqcPyeoxD33-50" target="3UfQps2seiqcPyeoxD33-80">
          <mxGeometry relative="1" as="geometry" />
        </mxCell>
        <mxCell id="3UfQps2seiqcPyeoxD33-50" value="USB_IN&lt;span style=&quot;background-color: transparent; color: light-dark(rgb(0, 0, 0), rgb(255, 255, 255));&quot;&gt;&amp;nbsp;1&lt;/span&gt;" style="whiteSpace=wrap;html=1;aspect=fixed;" vertex="1" parent="1">
          <mxGeometry x="120" y="617" width="80" height="80" as="geometry" />
        </mxCell>
        <mxCell id="3UfQps2seiqcPyeoxD33-63" style="edgeStyle=orthogonalEdgeStyle;rounded=0;orthogonalLoop=1;jettySize=auto;html=1;exitX=1;exitY=0.5;exitDx=0;exitDy=0;entryX=0;entryY=0.25;entryDx=0;entryDy=0;" edge="1" parent="1" source="3UfQps2seiqcPyeoxD33-56" target="4">
          <mxGeometry relative="1" as="geometry" />
        </mxCell>
        <mxCell id="3UfQps2seiqcPyeoxD33-56" value="USB_OUT 0" style="whiteSpace=wrap;html=1;aspect=fixed;" vertex="1" parent="1">
          <mxGeometry x="770" y="280" width="80" height="80" as="geometry" />
        </mxCell>
        <mxCell id="3UfQps2seiqcPyeoxD33-64" style="edgeStyle=orthogonalEdgeStyle;rounded=0;orthogonalLoop=1;jettySize=auto;html=1;exitX=1;exitY=0.5;exitDx=0;exitDy=0;entryX=0;entryY=0.75;entryDx=0;entryDy=0;" edge="1" parent="1" source="3UfQps2seiqcPyeoxD33-57" target="4">
          <mxGeometry relative="1" as="geometry">
            <Array as="points">
              <mxPoint x="1000" y="412" />
              <mxPoint x="1000" y="311" />
            </Array>
          </mxGeometry>
        </mxCell>
        <mxCell id="3UfQps2seiqcPyeoxD33-57" value="SER_OUT 0" style="whiteSpace=wrap;html=1;aspect=fixed;" vertex="1" parent="1">
          <mxGeometry x="770" y="372" width="80" height="80" as="geometry" />
        </mxCell>
        <mxCell id="3UfQps2seiqcPyeoxD33-61" style="edgeStyle=orthogonalEdgeStyle;rounded=0;orthogonalLoop=1;jettySize=auto;html=1;exitX=1;exitY=0.5;exitDx=0;exitDy=0;entryX=0;entryY=0.25;entryDx=0;entryDy=0;" edge="1" parent="1" source="3UfQps2seiqcPyeoxD33-58" target="11">
          <mxGeometry relative="1" as="geometry">
            <Array as="points">
              <mxPoint x="1000" y="601" />
              <mxPoint x="1000" y="684" />
            </Array>
          </mxGeometry>
        </mxCell>
        <mxCell id="3UfQps2seiqcPyeoxD33-58" value="USB_OUT 7" style="whiteSpace=wrap;html=1;aspect=fixed;" vertex="1" parent="1">
          <mxGeometry x="770" y="560.5" width="80" height="80" as="geometry" />
        </mxCell>
        <mxCell id="3UfQps2seiqcPyeoxD33-59" value="&lt;font style=&quot;font-size: 50px;&quot;&gt;...&lt;/font&gt;" style="text;html=1;align=center;verticalAlign=middle;whiteSpace=wrap;rounded=0;rotation=90;fontSize=16;" vertex="1" parent="1">
          <mxGeometry x="810" y="490" width="60" height="30" as="geometry" />
        </mxCell>
        <mxCell id="3UfQps2seiqcPyeoxD33-62" style="edgeStyle=orthogonalEdgeStyle;rounded=0;orthogonalLoop=1;jettySize=auto;html=1;exitX=1;exitY=0.5;exitDx=0;exitDy=0;entryX=0;entryY=0.75;entryDx=0;entryDy=0;" edge="1" parent="1" source="3UfQps2seiqcPyeoxD33-60" target="11">
          <mxGeometry relative="1" as="geometry" />
        </mxCell>
        <mxCell id="3UfQps2seiqcPyeoxD33-60" value="SER_OUT 7" style="whiteSpace=wrap;html=1;aspect=fixed;" vertex="1" parent="1">
          <mxGeometry x="770" y="653.5" width="80" height="80" as="geometry" />
        </mxCell>
        <mxCell id="3UfQps2seiqcPyeoxD33-65" style="edgeStyle=orthogonalEdgeStyle;rounded=0;orthogonalLoop=1;jettySize=auto;html=1;exitX=1;exitY=0.5;exitDx=0;exitDy=0;" edge="1" parent="1" source="13" target="3UfQps2seiqcPyeoxD33-60">
          <mxGeometry relative="1" as="geometry" />
        </mxCell>
        <mxCell id="3UfQps2seiqcPyeoxD33-66" style="edgeStyle=orthogonalEdgeStyle;rounded=0;orthogonalLoop=1;jettySize=auto;html=1;exitX=1;exitY=0.5;exitDx=0;exitDy=0;entryX=0;entryY=0.5;entryDx=0;entryDy=0;" edge="1" parent="1" source="13" target="3UfQps2seiqcPyeoxD33-57">
          <mxGeometry relative="1" as="geometry" />
        </mxCell>
        <mxCell id="3UfQps2seiqcPyeoxD33-67" style="edgeStyle=orthogonalEdgeStyle;rounded=0;orthogonalLoop=1;jettySize=auto;html=1;exitX=1;exitY=0.5;exitDx=0;exitDy=0;" edge="1" parent="1" source="3" target="3UfQps2seiqcPyeoxD33-56">
          <mxGeometry relative="1" as="geometry" />
        </mxCell>
        <mxCell id="3UfQps2seiqcPyeoxD33-68" style="edgeStyle=orthogonalEdgeStyle;rounded=0;orthogonalLoop=1;jettySize=auto;html=1;exitX=1;exitY=0.5;exitDx=0;exitDy=0;entryX=0;entryY=0.5;entryDx=0;entryDy=0;" edge="1" parent="1" source="3" target="3UfQps2seiqcPyeoxD33-58">
          <mxGeometry relative="1" as="geometry" />
        </mxCell>
      </root>
    </mxGraphModel>
  </diagram>
</mxfile>
